<?xml version="1.0" standalone="no"?>
<!DOCTYPE svg PUBLIC "-//W3C//DTD SVG 20010904//EN"
 "http://www.w3.org/TR/2001/REC-SVG-20010904/DTD/svg10.dtd">
<svg version="1.0" xmlns="http://www.w3.org/2000/svg"
 width="1000.000000pt" height="1000.000000pt" viewBox="0 0 1000.000000 1000.000000"
 preserveAspectRatio="xMidYMid meet">

<g transform="translate(0.000000,1000.000000) scale(0.100000,-0.100000)"
fill="#000000" stroke="none">
<path d="M4816 7320 c-544 -69 -935 -420 -1066 -960 -49 -202 -50 -234 -50
-1352 0 -676 4 -1083 11 -1146 14 -133 45 -269 85 -381 18 -52 33 -96 31 -97
-1 -1 -31 4 -67 12 -36 7 -82 14 -102 14 -33 0 -170 -25 -270 -49 l-37 -9 16
37 c37 83 74 198 95 294 l23 102 0 1743 0 1744 -28 24 -28 24 -538 0 c-529 0
-539 0 -565 -21 l-26 -20 -1 -1617 c0 -1225 -3 -1625 -12 -1652 -14 -41 -56
-65 -95 -55 -15 4 -46 26 -69 50 -49 51 -78 132 -94 260 -16 121 -27 154 -54
167 -36 16 -902 -28 -932 -48 -34 -22 -37 -54 -24 -236 29 -401 112 -684 275
-931 l56 -85 0 -101 0 -100 -39 -12 c-22 -6 -61 -28 -87 -48 -104 -78 -139
-227 -96 -398 54 -213 163 -328 357 -378 96 -25 261 -45 364 -45 262 0 647 72
855 159 l92 38 40 -33 c21 -19 71 -49 109 -69 234 -118 530 -97 865 61 l94 45
39 -46 c74 -86 185 -132 343 -142 153 -9 279 20 445 102 l85 43 39 -30 c56
-41 135 -78 212 -98 l67 -17 11 -49 c25 -107 84 -199 164 -259 116 -85 285
-103 407 -45 89 43 175 154 234 299 l32 80 46 -5 c26 -3 60 -7 75 -9 83 -13
255 34 422 116 56 27 106 49 111 49 5 0 20 -12 34 -27 172 -182 471 -202 781
-52 l107 52 34 -27 c92 -70 243 -116 379 -116 256 0 503 94 724 274 255 209
342 345 333 521 -7 130 -68 221 -182 271 l-64 27 47 91 c91 177 138 369 149
610 14 308 -18 495 -123 711 -93 191 -251 355 -431 446 -46 23 -84 45 -84 48
0 4 28 16 63 29 90 32 205 102 276 168 181 167 262 383 281 747 17 331 -28
526 -171 747 -120 185 -320 355 -522 442 -252 109 -338 118 -1119 118 -605 0
-618 0 -638 -20 -20 -20 -20 -33 -20 -1910 0 -1039 -3 -1890 -6 -1890 -3 0
-24 14 -46 31 -49 39 -142 78 -185 79 -18 0 -33 3 -33 8 0 4 10 54 23 112 l22
105 0 1145 0 1145 -23 125 c-66 360 -227 642 -471 825 -216 163 -454 242 -746
250 -77 2 -171 0 -209 -5z m2897 -934 c45 -19 87 -67 98 -112 11 -51 11 -558
-1 -608 -12 -54 -38 -87 -90 -113 -52 -27 -92 -29 -114 -7 -14 13 -16 66 -16
423 0 303 3 410 12 419 16 16 71 15 111 -2z m-2688 -342 c9 -4 25 -24 35 -45
19 -37 20 -65 20 -1012 l0 -974 -22 -33 c-41 -59 -107 -61 -145 -3 -17 26 -18
82 -21 993 -2 684 0 976 8 1003 19 66 67 93 125 71z m2723 -1477 c71 -47 72
-50 72 -456 0 -281 -3 -369 -14 -394 -18 -44 -78 -95 -122 -103 -34 -6 -40 -4
-65 27 l-28 34 -1 451 c0 347 3 453 13 463 19 20 100 8 145 -22z m-2040 -1033
c20 -22 23 -36 20 -69 -11 -91 -91 -194 -167 -215 -136 -36 -259 96 -192 207
38 61 170 116 265 109 40 -3 55 -9 74 -32z m1635 -28 c80 -29 91 -59 57 -146
-11 -28 -20 -55 -20 -60 0 -6 75 -10 191 -10 112 0 198 -4 210 -10 28 -15 25
-71 -5 -107 -36 -43 -79 -51 -299 -59 l-198 -7 -46 -85 c-66 -121 -105 -236
-99 -290 17 -138 135 -145 320 -21 33 23 82 61 107 84 25 24 95 75 156 114 97
63 112 76 117 105 23 120 256 227 331 151 27 -26 33 -72 14 -106 -9 -18 -2
-29 60 -90 134 -132 147 -205 54 -318 l-28 -34 25 13 c46 24 114 73 218 157
114 92 149 113 187 113 67 0 83 -46 44 -127 -35 -72 -243 -254 -375 -329 -170
-95 -393 -128 -538 -78 -62 21 -146 99 -146 136 0 52 148 168 215 168 17 0 44
-9 60 -20 36 -24 58 -25 75 -5 24 29 -19 118 -101 209 -5 5 -29 -9 -56 -35
-26 -24 -70 -62 -98 -84 -27 -22 -84 -71 -125 -108 -96 -88 -275 -208 -368
-246 -211 -87 -363 -61 -472 83 -9 12 -17 53 -20 107 l-5 88 -92 -60 c-145
-94 -337 -195 -428 -224 -73 -24 -96 -27 -174 -23 -72 3 -97 9 -119 25 -39 29
-49 65 -30 106 14 30 46 49 267 163 285 146 307 160 297 192 -13 40 -90 23
-258 -56 -99 -46 -370 -200 -380 -216 -7 -10 -69 -178 -135 -361 -46 -130 -68
-176 -102 -217 -34 -40 -35 -40 -89 -36 -48 4 -60 10 -88 41 -62 67 -69 179
-19 334 14 43 25 81 25 86 0 4 -21 -3 -47 -16 -133 -67 -243 -77 -340 -31 -70
33 -153 115 -178 176 l-19 44 -80 -61 c-176 -132 -315 -188 -466 -189 -111 -1
-161 18 -198 74 -19 29 -23 45 -20 87 6 71 63 183 133 261 64 70 66 92 10 92
-30 0 -48 -11 -118 -73 -83 -75 -128 -110 -272 -219 -227 -171 -539 -255 -735
-199 -69 20 -143 74 -183 132 -33 47 -40 67 -44 120 -12 160 94 291 322 399
171 82 311 120 434 120 58 0 72 -3 95 -25 59 -55 12 -169 -89 -216 -46 -22
-143 -25 -227 -8 -50 10 -59 9 -81 -7 -91 -69 -87 -175 9 -235 85 -52 242 -20
401 83 61 40 76 55 98 102 14 30 58 89 96 130 162 174 346 244 411 156 11 -16
26 -31 33 -33 6 -3 56 -1 111 3 113 9 142 0 174 -53 25 -40 25 -84 2 -118 -9
-15 -52 -64 -96 -110 -101 -108 -112 -125 -96 -144 32 -39 87 -15 296 127 104
70 139 100 169 144 50 72 136 148 204 180 46 22 65 25 124 22 59 -3 72 -7 89
-28 53 -65 -12 -225 -150 -371 -40 -43 -35 -63 23 -99 29 -18 44 -21 79 -16
98 15 373 209 424 300 115 204 354 426 458 426 34 0 64 -26 64 -56 0 -38 -38
-114 -112 -227 -97 -147 -87 -152 117 -57 179 83 367 115 442 77 35 -18 109
-97 125 -133 11 -24 13 -22 55 67 24 50 43 93 43 94 0 1 -35 5 -77 9 -110 9
-157 50 -139 120 11 43 56 56 200 56 l124 0 59 97 c78 129 126 154 226 119z
m-4399 -77 c33 -26 34 -69 3 -123 -44 -77 -154 -136 -253 -136 -50 0 -101 24
-110 52 -17 54 -316 -31 -384 -108 -16 -19 -30 -39 -30 -44 0 -22 60 -44 231
-86 284 -70 396 -121 432 -197 22 -45 22 -119 1 -163 -74 -157 -547 -297 -994
-296 -236 0 -365 33 -409 105 -42 69 -66 212 -36 223 8 4 79 -10 158 -30 211
-53 278 -61 507 -60 177 1 216 4 284 22 114 31 133 52 71 78 -20 8 -145 42
-278 75 -415 103 -454 117 -493 186 -23 38 -26 52 -22 113 3 50 9 77 24 97 87
116 805 307 1175 312 83 1 100 -2 123 -20z"/>
</g>
</svg>
